<?xml version="1.0" encoding="utf-8"?>
<!-- Generator: Adobe Illustrator 23.0.2, SVG Export Plug-In . SVG Version: 6.00 Build 0)  -->
<svg version="1.1" xmlns="http://www.w3.org/2000/svg" xmlns:xlink="http://www.w3.org/1999/xlink" x="0px" y="0px"
	 viewBox="0 0 148.09 151.15" style="enable-background:new 0 0 148.09 151.15;" xml:space="preserve">
<style type="text/css">
	.st0{fill:url(#SVGID_1_);}
	.st1{fill:#FFFFFF;}
</style>
<g id="Group_2_1_">
	<g id="ScenicPlots_xA0_Image_1_">
		<linearGradient id="SVGID_1_" gradientUnits="userSpaceOnUse" x1="18.2913" y1="108.3032" x2="128.8662" y2="44.4628">
			<stop  offset="0" style="stop-color:#47F9E8"/>
			<stop  offset="1" style="stop-color:#0092FF"/>
		</linearGradient>
		<circle class="st0" cx="73.58" cy="76.38" r="63.83"/>
	</g>
	<path class="st1" d="M89.79,55.13c0,0-0.22,0.99,0.96,0.99s7.58,0,7.58,0s0.91,0.22,0.91-0.91s0-2.82,0-2.82s0.14-4.4-1.45-10.66
		c-1.6-6.26-5.62-13.15-13.47-16.79S66,22.19,60.64,24.55s-11.02,8.33-12.19,14.76c-1.02,5.6-0.36,8.24,0.09,9.71
		c0.45,1.47,2,5.91,7.06,8.79c4.48,2.54,8.87,3.96,10.34,4.4s9.26,2.55,12.06,3.51c2.81,0.96,5.81,2.11,7.47,5.23
		c1.66,3.13-0.19,5.87-2.17,7.53c-1.98,1.66-4.82,3.7-9.65,6.45s-4.83,2.74-4.83,2.74s-0.27,0.11-0.27,0.53c0,0.41,0,8.86,0,8.86
		s-0.27,1.29,1.02,0.62c1.29-0.67,8.89-4.62,12.55-6.84c3.66-2.21,5.83-3.74,8.68-6.77c2.85-3.02,5.83-7.91,4.09-14.47
		c-1.74-6.55-7.15-9.66-9.4-10.85S75.16,55.16,71,54.13c-3.79-0.94-9.81-2.8-12.72-6.6c-2.83-3.68-0.26-9.89,2.09-11.91
		c1.28-1.1,4.99-4.51,13.28-4c8.29,0.51,11.7,5.02,13.02,7.06c1.32,2.04,2.6,6.17,2.89,8.72S89.79,55.13,89.79,55.13z"/>
	<path class="st1" d="M56.55,65.81c0,0-0.32-1.3,0.87-0.81c1.19,0.49,2.62,1.17,4.4,1.79c1.79,0.62,3.21,0.87,3.4,0.89
		c0.19,0.02,0.64,0.02,0.64,1.32s0,34.57,0,34.57s0.1,0.88-0.93,0.88c-1.02,0-7.63,0-7.63,0s-0.8,0.18-0.8-0.99
		S56.55,65.81,56.55,65.81z"/>
	<path class="st1" d="M57.45,108.74h7.72c0,0,0.8-0.13,0.54,0.89c-0.26,1.02-0.57,4.6-0.19,5.62s2.04,3.93,2.04,3.93
		s-2.17,3.57-3,5.36c-0.83,1.79-2.06,5.17-2.06,5.17v-5.9c0,0,0.14-0.93-0.62-0.93c-0.77,0-0.67,0.89-0.67,0.89v7.91
		c0,0-1.53-4.21-2.62-6.51c-1.09-2.3-3.7-6.13-3.7-6.13s0.64-1.02,1.63-2.71c0.99-1.69,1.02-3.57,0.83-4.88
		c-0.19-1.31-0.35-2.04-0.35-2.04S56.84,108.74,57.45,108.74z"/>
</g>
<g id="Layer_4">
</g>
</svg>
