<svg xmlns="http://www.w3.org/2000/svg" viewBox="0 0 480 480"><style>.st1{fill:#fff}</style><g id="Group_2_1_"><g id="ScenicPlots_xA0_Image_1_"><linearGradient id="SVGID_1_" gradientUnits="userSpaceOnUse" x1="186.142" y1="222.559" x2="296.717" y2="158.718"><stop offset="0" stop-color="#47f9e8"/><stop offset="1" stop-color="#0092ff"/></linearGradient><circle cx="241.43" cy="190.64" r="63.83" fill="url(#SVGID_1_)"/></g><path class="st1" d="M257.64 169.38s-.22.99.96.99h7.58s.91.22.91-.91v-2.82s.14-4.4-1.45-10.66c-1.6-6.26-5.62-13.15-13.47-16.79-7.85-3.64-18.32-2.74-23.68-.38-5.36 2.36-11.02 8.33-12.19 14.76-1.02 5.6-.36 8.24.09 9.71s2 5.91 7.06 8.79c4.48 2.54 8.87 3.96 10.34 4.4 1.47.45 9.26 2.55 12.06 3.51 2.81.96 5.81 2.11 7.47 5.23s-.19 5.87-2.17 7.53c-1.98 1.66-4.82 3.7-9.65 6.45l-4.83 2.74s-.27.11-.27.53v8.86s-.27 1.29 1.02.62 8.89-4.62 12.55-6.84 5.83-3.74 8.68-6.77c2.85-3.02 5.83-7.91 4.09-14.47-1.74-6.55-7.15-9.66-9.4-10.85-2.26-1.19-10.31-3.61-14.47-4.64-3.79-.94-9.81-2.8-12.72-6.6-2.83-3.68-.26-9.89 2.09-11.91 1.28-1.1 4.99-4.51 13.28-4s11.7 5.02 13.02 7.06 2.6 6.17 2.89 8.72c.27 2.57.21 7.74.21 7.74z"/><path class="st1" d="M224.4 180.06s-.32-1.3.87-.81 2.62 1.17 4.4 1.79 3.21.87 3.4.89c.19.02.64.02.64 1.32v34.57s.1.88-.93.88h-7.63s-.8.18-.8-.99c.02-1.16.05-37.65.05-37.65zm.9 42.94h7.72s.8-.13.54.89-.57 4.6-.19 5.62c.38 1.02 2.04 3.93 2.04 3.93s-2.17 3.57-3 5.36c-.83 1.79-2.06 5.17-2.06 5.17v-5.9s.14-.93-.62-.93-.67.89-.67.89v7.91s-1.53-4.21-2.62-6.51-3.7-6.13-3.7-6.13.64-1.02 1.63-2.71c.99-1.69 1.02-3.57.83-4.88-.19-1.31-.35-2.04-.35-2.04s-.16-.67.45-.67z"/></g><g id="Layer_4"><linearGradient id="SVGID_2_" gradientUnits="userSpaceOnUse" x1="45.84" y1="315.72" x2="434.36" y2="315.72"><stop offset="0" stop-color="#47f9e8"/><stop offset="1" stop-color="#0092ff"/></linearGradient><path d="M86.86 289.26c.75-1.4 1.33-2.61 1.75-3.64.42-1.03.82-2.1 1.19-3.22s.56-2.05.56-2.8c.28.19.84.42 1.68.7.84.28 1.73.7 2.66 1.26.93.56 1.75 1.33 2.45 2.31.7.98 1.05 2.17 1.05 3.57h-.14c0 .93-.16 1.87-.49 2.8a101.188 101.188 0 00-1.96 6.23c-.33 1.17-.49 2.4-.49 3.71 0 1.68.23 3.5.7 5.46s.98 4.04 1.54 6.23c.56 2.19 1.1 4.5 1.61 6.93.51 2.43.86 4.95 1.05 7.56 2.15.47 3.97.7 5.46.7 1.4 0 2.43-.09 3.08-.28.65-.19 1.17-.37 1.54-.56.37-.19.63-.37.77-.56.14-.19.4-.28.77-.28.56 0 .84.19.84.56 0 .56-.79 1.21-2.38 1.96-1.59.75-3.59 1.12-6.02 1.12-1.31 0-2.66-.14-4.06-.42-.09 3.83-.89 7.19-2.38 10.08-1.49 2.89-3.45 5.32-5.88 7.28a25.352 25.352 0 01-8.19 4.41c-3.03.98-6.14 1.47-9.31 1.47-3.92 0-7.61-.54-11.06-1.61s-6.46-2.64-9.03-4.69c-2.57-2.05-4.6-4.48-6.09-7.28-1.49-2.8-2.24-5.97-2.24-9.52 0-2.8.44-5.37 1.33-7.7.89-2.33 2.1-4.34 3.64-6.02 1.54-1.68 3.34-2.96 5.39-3.85 2.05-.89 4.2-1.33 6.44-1.33 1.49 0 2.92.23 4.27.7 1.35.47 2.68.93 3.99 1.4 3.27-4.2 6.3-8.26 9.1-12.18s5.09-7.42 6.86-10.5zm-32.62 28.7c-1.21 1.21-2.1 2.66-2.66 4.34-.56 1.68-.84 3.45-.84 5.32 0 .75.05 1.31.14 1.68 1.59-1.03 4.04-2.78 7.35-5.25 3.31-2.47 6.7-5.58 10.15-9.31-1.96-.56-3.92-.84-5.88-.84-1.59 0-3.1.28-4.55.84-1.45.56-2.68 1.63-3.71 3.22zm29.68 24.92c2.99-1.31 5.11-3.17 6.37-5.6 1.26-2.43 1.89-5.13 1.89-8.12v-1.54c0-.56-.05-1.12-.14-1.68-2.99-1.31-6.14-2.82-9.45-4.55a625.94 625.94 0 00-10.01-5.11c-2.24 2.24-4.46 4.2-6.65 5.88-2.19 1.68-4.27 3.1-6.23 4.27a83.257 83.257 0 01-5.18 2.87c-1.49.75-2.61 1.26-3.36 1.54.37 2.43 1.21 4.55 2.52 6.37 1.31 1.82 2.92 3.34 4.83 4.55 1.91 1.21 4.06 2.1 6.44 2.66 2.38.56 4.88.84 7.49.84 2.15 0 4.2-.19 6.16-.56 1.96-.37 3.73-.98 5.32-1.82zm7.7-19.74c-.09-.09-.14-.23-.14-.42-.28-1.77-.68-3.55-1.19-5.32-.51-1.77-1.05-3.5-1.61-5.18-.56-1.68-1.07-3.36-1.54-5.04a23.64 23.64 0 01-.84-5.18 223.405 223.405 0 01-11.06 11.9c3.08 1.59 5.95 3.2 8.61 4.83 2.66 1.64 5.25 3.1 7.77 4.41zm27.72 21.84a9.836 9.836 0 01-4.06-1.75c-1.21-.89-2.26-1.94-3.15-3.15-.89-1.21-1.56-2.54-2.03-3.99-.47-1.45-.7-2.82-.7-4.13 0-2.8.35-5.48 1.05-8.05.7-2.57 1.8-4.9 3.29-7 1.49-2.1 3.34-3.92 5.53-5.46 2.19-1.54 4.78-2.64 7.77-3.29h1.4c1.96 0 3.57.35 4.83 1.05 1.26.7 2.29 1.59 3.08 2.66s1.35 2.29 1.68 3.64c.33 1.35.49 2.68.49 3.99 0 1.49-.35 3.17-1.05 5.04-.7 1.87-1.8 3.17-3.29 3.92-.56.28-1.26.42-2.1.42-1.4 0-2.8-.23-4.2-.7-.75-.28-1.45-.56-2.1-.84.47-.56.93-1.28 1.4-2.17.47-.89.86-1.77 1.19-2.66.33-.89.61-1.7.84-2.45.23-.75.35-1.26.35-1.54 0-.75-.28-1.31-.84-1.68a3.25 3.25 0 00-1.82-.56c-1.12 0-2.38.47-3.78 1.4-1.4.93-2.68 2.17-3.85 3.71a26.027 26.027 0 00-3.01 5.11c-.84 1.87-1.26 3.73-1.26 5.6 0 2.71.84 4.92 2.52 6.65 1.68 1.73 3.73 2.59 6.16 2.59 1.21 0 2.43-.19 3.64-.56 1.21-.37 2.33-.84 3.36-1.4 1.03-.56 1.98-1.14 2.87-1.75.89-.61 1.66-1.14 2.31-1.61 1.59-1.21 2.75-2.26 3.5-3.15.75-.89 1.28-1.61 1.61-2.17.33-.56.56-.98.7-1.26s.35-.42.63-.42c.56 0 .84.14.84.42 0 .19-.44 1.12-1.33 2.8-.89 1.68-2.19 3.5-3.92 5.46s-3.85 3.76-6.37 5.39-5.41 2.45-8.68 2.45c-1.21 0-2.38-.19-3.5-.56zm53.77-15.96c.37.09.56.28.56.56 0 .09-.37 1-1.12 2.73-.75 1.73-2.01 3.59-3.78 5.6s-4.11 3.85-7 5.53c-2.89 1.68-6.44 2.52-10.64 2.52-2.52 0-4.6-.61-6.23-1.82-1.63-1.21-2.89-2.66-3.78-4.34-.89-1.68-1.52-3.41-1.89-5.18-.37-1.77-.56-3.22-.56-4.34 0-2.8.54-5.53 1.61-8.19 1.07-2.66 2.43-5.04 4.06-7.14 1.63-2.1 3.48-3.78 5.53-5.04 2.05-1.26 4.06-1.89 6.02-1.89 2.71 0 4.78.35 6.23 1.05 1.45.7 2.52 1.52 3.22 2.45.7.93 1.12 1.87 1.26 2.8.14.93.21 1.63.21 2.1 0 2.61-.51 4.76-1.54 6.44-1.03 1.68-2.31 3.01-3.85 3.99-1.54.98-3.2 1.68-4.97 2.1-1.77.42-3.41.63-4.9.63-1.59 0-2.89-.16-3.92-.49-1.03-.33-1.82-.72-2.38-1.19-.47 1.68-.7 3.13-.7 4.34 0 1.12.14 2.22.42 3.29.28 1.07.77 2.03 1.47 2.87s1.63 1.52 2.8 2.03c1.17.51 2.64.77 4.41.77 2.99 0 5.65-.58 7.98-1.75s4.29-2.5 5.88-3.99c1.59-1.49 2.78-2.87 3.57-4.13.79-1.26 1.19-1.98 1.19-2.17v-.14h.14l.28-.14c.09 0 .16.02.21.07.04.05.11.07.21.07zm-24.51-7.42c-.93 1.03-1.77 2.38-2.52 4.06 1.96.47 3.73.44 5.32-.07 1.59-.51 2.89-1.26 3.92-2.24 1.03-.98 1.77-2.03 2.24-3.15.47-1.12.61-1.96.42-2.52 0-.28-1.07-.42-3.22-.42-.75 0-1.73.4-2.94 1.19-1.21.79-2.28 1.84-3.22 3.15zm41.45 21.14c-1.31-1.87-1.96-4.34-1.96-7.42 0-2.52.35-5.16 1.05-7.91.7-2.75 1.52-5.39 2.45-7.91-.84 1.59-1.75 3.31-2.73 5.18-.98 1.87-1.94 3.73-2.87 5.6-.93 1.87-1.82 3.69-2.66 5.46-.84 1.77-1.59 3.27-2.24 4.48-.56 1.12-1.05 2.01-1.47 2.66a9.36 9.36 0 01-1.54 1.82c-.61.56-1.28.89-2.03.98-2.24.19-3.73-.63-4.48-2.45-.75-1.82-1.12-4.13-1.12-6.93 0-3.08.42-6.23 1.26-9.45.84-3.22 1.77-6.14 2.8-8.75 1.03-2.61 2.01-4.74 2.94-6.37.93-1.63 1.49-2.45 1.68-2.45.65 0 1.42.16 2.31.49.89.33 1.8.72 2.73 1.19 1.03.47 2.1 1.03 3.22 1.68-.75 1.59-1.7 3.36-2.87 5.32-1.17 1.96-2.31 4.06-3.43 6.3s-2.1 4.58-2.94 7c-.84 2.43-1.26 4.81-1.26 7.14 3.08-5.51 5.74-10.03 7.98-13.58 2.24-3.55 4.13-6.39 5.67-8.54 1.54-2.15 2.8-3.78 3.78-4.9s1.77-2.05 2.38-2.8c.61-.75 1.05-1.45 1.33-2.1.28-.65.56-1.63.84-2.94.09 0 .49.21 1.19.63.7.42 1.42.98 2.17 1.68s1.45 1.45 2.1 2.24c.65.79.98 1.61.98 2.45 0 .28-.07.79-.21 1.54-.14.75-.4 1.31-.77 1.68-.75 1.59-1.68 3.36-2.8 5.32a96.001 96.001 0 00-3.22 6.16 62.573 62.573 0 00-2.66 6.44c-.75 2.15-1.12 4.15-1.12 6.02 0 1.03.12 1.89.35 2.59.23.7.77 1.05 1.61 1.05 1.21 0 2.82-.96 4.83-2.87 2.01-1.91 3.94-5.02 5.81-9.31l.28-.14c.28 0 .56.14.84.42l.28.28c0 .19-.3 1.1-.91 2.73-.61 1.63-1.47 3.43-2.59 5.39-1.12 1.96-2.5 3.73-4.13 5.32-1.63 1.59-3.48 2.38-5.53 2.38-.84 0-1.73-.19-2.66-.56-.94-.37-1.82-1.12-2.66-2.24zm18.48 0c-1.4-1.77-2.1-4.25-2.1-7.42 0-2.8.42-5.65 1.26-8.54.84-2.89 1.77-5.6 2.8-8.12 1.03-2.52 1.98-4.76 2.87-6.72.89-1.96 1.42-3.41 1.61-4.34-.09.19.21.42.91.7.7.28 1.47.7 2.31 1.26.84.56 1.63 1.28 2.38 2.17.75.89 1.12 2.03 1.12 3.43 0 1.03-.47 2.24-1.4 3.64h-.14c-1.59 2.99-3.2 6.16-4.83 9.52-1.63 3.36-2.45 6.53-2.45 9.52 0 1.03.14 1.87.42 2.52.28.65.93.98 1.96.98 1.59 0 3.55-.96 5.88-2.87 2.33-1.91 4.43-5.02 6.3-9.31l.28-.14c.37 0 .7.14.98.42l.28.28c0-.09-.21.68-.63 2.31-.42 1.63-1.19 3.46-2.31 5.46-1.12 2.01-2.64 3.85-4.55 5.53-1.91 1.68-4.32 2.52-7.21 2.52-.93 0-1.91-.19-2.94-.56-1.03-.37-1.96-1.12-2.8-2.24zm18.48-39.34a6.123 6.123 0 01-2.1 2.52c-.93.65-1.91.98-2.94.98-1.31 0-2.24-.47-2.8-1.4-.56-.93-.84-2.01-.84-3.22 0-1.49.44-2.71 1.33-3.64.89-.93 1.98-1.4 3.29-1.4s2.38.42 3.22 1.26 1.26 1.87 1.26 3.08c0 .65-.14 1.26-.42 1.82zm8.82 41.58a9.836 9.836 0 01-4.06-1.75c-1.21-.89-2.26-1.94-3.15-3.15-.89-1.21-1.56-2.54-2.03-3.99-.47-1.45-.7-2.82-.7-4.13 0-2.8.35-5.48 1.05-8.05.7-2.57 1.8-4.9 3.29-7 1.49-2.1 3.34-3.92 5.53-5.46 2.19-1.54 4.78-2.64 7.77-3.29h1.4c1.96 0 3.57.35 4.83 1.05s2.29 1.59 3.08 2.66 1.35 2.29 1.68 3.64c.33 1.35.49 2.68.49 3.99 0 1.49-.35 3.17-1.05 5.04-.7 1.87-1.8 3.17-3.29 3.92-.56.28-1.26.42-2.1.42-1.4 0-2.8-.23-4.2-.7-.75-.28-1.45-.56-2.1-.84.47-.56.93-1.28 1.4-2.17.46-.89.86-1.77 1.19-2.66.33-.89.61-1.7.84-2.45.23-.75.35-1.26.35-1.54 0-.75-.28-1.31-.84-1.68a3.25 3.25 0 00-1.82-.56c-1.12 0-2.38.47-3.78 1.4-1.4.93-2.68 2.17-3.85 3.71a26.027 26.027 0 00-3.01 5.11c-.84 1.87-1.26 3.73-1.26 5.6 0 2.71.84 4.92 2.52 6.65 1.68 1.73 3.73 2.59 6.16 2.59 1.21 0 2.43-.19 3.64-.56 1.21-.37 2.33-.84 3.36-1.4 1.03-.56 1.98-1.14 2.87-1.75.89-.61 1.66-1.14 2.31-1.61 1.59-1.21 2.75-2.26 3.5-3.15.75-.89 1.28-1.61 1.61-2.17.33-.56.56-.98.7-1.26.14-.28.35-.42.63-.42.56 0 .84.14.84.42 0 .19-.44 1.12-1.33 2.8-.89 1.68-2.2 3.5-3.92 5.46-1.73 1.96-3.85 3.76-6.37 5.39s-5.41 2.45-8.68 2.45c-1.21 0-2.38-.19-3.5-.56zm27.44-34.16c-1.68-1.31-2.82-2.59-3.43-3.85-.61-1.26-.91-2.4-.91-3.43 0-1.03.14-1.91.42-2.66.19-.37.37-.75.56-1.12.28-.37 1.31-1.33 3.08-2.87s4.32-3.17 7.63-4.9c3.31-1.73 7.3-3.27 11.97-4.62 4.67-1.35 9.99-2.03 15.96-2.03 1.4 0 3.34.14 5.81.42 2.47.28 4.95.89 7.42 1.82a24 24 0 016.79 3.92c2.05 1.68 3.36 3.97 3.92 6.86 0 4.2-.96 7.89-2.87 11.06-1.91 3.17-3.9 6.11-5.95 8.82-3.36 4.48-7.17 7.72-11.41 9.73-4.25 2.01-8.33 3.01-12.25 3.01-2.15 0-4.15-.3-6.02-.91-1.87-.61-3.5-1.24-4.9-1.89-1.12 2.71-2.22 5.37-3.29 7.98-1.07 2.61-1.94 4.71-2.59 6.3 0 .09-.28.96-.84 2.59-.56 1.63-.84 3.9-.84 6.79-.19 0-.58-.09-1.19-.28-.61-.19-1.26-.49-1.96-.91-.7-.42-1.31-1.03-1.82-1.82s-.77-1.84-.77-3.15c0-.75.05-1.59.14-2.52.09-.93.33-2.05.7-3.36h.14c1.31-5.69 2.89-11.15 4.76-16.38-.09-.09-.23-.16-.42-.21-.19-.05-.28-.26-.28-.63 0-.19.09-.35.28-.49.19-.14.37-.21.56-.21.09 0 .16.02.21.07.05.05.12.07.21.07 1.12-3.08 2.24-5.83 3.36-8.26 1.12-2.43 1.91-4.53 2.38-6.3.37-.93.75-1.91 1.12-2.94.56-1.77.93-3.31 1.12-4.62.19.09.7.3 1.54.63.84.33 1.73.77 2.66 1.33.93.56 1.77 1.28 2.52 2.17.75.89 1.12 1.89 1.12 3.01 0 .84-.05 1.35-.14 1.54-.09.19-.37.75-.84 1.68-.47.93-1.24 2.57-2.31 4.9-1.07 2.33-2.59 5.97-4.55 10.92 1.31.47 2.75.86 4.34 1.19 1.59.33 3.31.49 5.18.49 2.61 0 5.25-.63 7.91-1.89s5.18-2.99 7.56-5.18c2.38-2.19 4.53-4.76 6.44-7.7 1.91-2.94 3.43-6.14 4.55-9.59.37-1.12.56-2.24.56-3.36 0-1.21-.56-2.29-1.68-3.22-1.12-.93-2.5-1.68-4.13-2.24-1.63-.56-3.38-.98-5.25-1.26s-3.55-.42-5.04-.42c-2.43 0-4.88.23-7.35.7-2.47.47-4.74 1.07-6.79 1.82-4.67 1.87-8.47 3.73-11.41 5.6-2.94 1.87-5.25 3.52-6.93 4.97-1.68 1.45-2.85 2.64-3.5 3.57-.65.93-1.07 1.35-1.26 1.26zm76.72-13.72c-.65 1.31-1.87 3.76-3.64 7.35s-3.62 7.51-5.53 11.76c-1.92 4.25-3.59 8.42-5.04 12.53-1.45 4.11-2.17 7.33-2.17 9.66 0 1.96.79 2.94 2.38 2.94 1.59 0 3.55-.96 5.88-2.87 2.33-1.91 4.43-5.02 6.3-9.31l.28-.14c.28 0 .56.14.84.42l.28.28c0-.19-.21.54-.63 2.17-.42 1.63-1.17 3.45-2.24 5.46-1.07 2.01-2.54 3.87-4.41 5.6-1.87 1.73-4.29 2.59-7.28 2.59-.75 0-1.54-.12-2.38-.35-.84-.23-1.63-.68-2.38-1.33s-1.38-1.54-1.89-2.66-.77-2.61-.77-4.48c0-3.27.61-7.07 1.82-11.41s2.59-8.59 4.13-12.74 3.01-7.89 4.41-11.2c1.4-3.31 2.33-5.62 2.8-6.93l.98-2.94c.28-.84.54-1.68.77-2.52.23-.84.35-1.54.35-2.1.19.09.7.3 1.54.63.84.33 1.73.77 2.66 1.33.93.56 1.77 1.24 2.52 2.03.75.79 1.12 1.75 1.12 2.87 0 1.21-.23 2.33-.7 3.36zm17.92 11.76c2.8.09 4.88 1.31 6.23 3.64 1.35 2.33 2.03 4.99 2.03 7.98 0 3.36-.72 6.56-2.17 9.59-1.45 3.03-2.92 5.48-4.41 7.35.47.09.89.16 1.26.21.37.05.75.07 1.12.07 2.15 0 3.99-.35 5.53-1.05s2.45-1.05 2.73-1.05h-.14c.09.09.23.19.42.28.37.37.56.75.56 1.12l-.14-.14c-.19 0-.54.23-1.05.7s-1.24 1-2.17 1.61c-.93.61-2.03 1.14-3.29 1.61-1.26.47-2.68.7-4.27.7-.65 0-1.33-.05-2.03-.14-.7-.09-1.42-.28-2.17-.56-.47.65-1.56 1.61-3.29 2.87s-3.76 1.89-6.09 1.89c-1.96 0-3.62-.42-4.97-1.26-1.35-.84-2.45-1.91-3.29-3.22-.84-1.31-1.47-2.71-1.89-4.2-.42-1.49-.63-2.94-.63-4.34 0-3.64.61-6.88 1.82-9.73 1.21-2.85 2.59-5.3 4.13-7.35s3.06-3.66 4.55-4.83c1.49-1.17 2.52-1.84 3.08-2.03.19 0 .44.12.77.35.33.23.86.96 1.61 2.17.84-.47 1.7-.98 2.59-1.54.89-.56 2.08-.79 3.57-.7zm-10.92 33.18c.47 0 1.28-.21 2.45-.63 1.17-.42 2.17-1.19 3.01-2.31-2.43-1.49-4.04-3.55-4.83-6.16-.79-2.61-1.19-5.18-1.19-7.7 0-.56.02-1.14.07-1.75.05-.61.12-1.19.21-1.75a23.558 23.558 0 00-3.99 5.74c-1.07 2.15-1.61 4.48-1.61 7 0 2.52.51 4.37 1.54 5.53 1.03 1.17 2.48 1.85 4.34 2.03zm8.54-6.44c.84-1.12 1.59-2.43 2.24-3.92.65-1.49 1.14-3.03 1.47-4.62.33-1.59.42-3.17.28-4.76-.14-1.59-.54-3.08-1.19-4.48-.75 0-1.45.37-2.1 1.12-.65.75-1.24 1.66-1.75 2.73s-.93 2.24-1.26 3.5c-.33 1.26-.49 2.45-.49 3.57 0 1.03.19 2.33.56 3.92.38 1.59 1.12 2.57 2.24 2.94zm38.51-32.2c-1.03.09-1.87.21-2.52.35-.65.14-1.87.26-3.64.35-1.21 2.52-2.57 5.41-4.06 8.68-1.49 3.27-2.92 6.51-4.27 9.73-1.35 3.22-2.47 6.23-3.36 9.03-.89 2.8-1.33 5.09-1.33 6.86 0 1.96.79 2.94 2.38 2.94 1.59 0 3.57-.96 5.95-2.87 2.38-1.91 4.5-5.02 6.37-9.31l.28-.14c.28 0 .56.14.84.42l.28.28c0-.56-.16-.07-.49 1.47-.33 1.54-1 3.38-2.03 5.53-1.03 2.15-2.5 4.15-4.41 6.02-1.91 1.87-4.5 2.8-7.77 2.8-.75 0-1.56-.12-2.45-.35-.89-.23-1.68-.7-2.38-1.4s-1.28-1.61-1.75-2.73c-.47-1.12-.7-2.61-.7-4.48 0-2.24.3-4.78.91-7.63.61-2.85 1.35-5.74 2.24-8.68.89-2.94 1.87-5.86 2.94-8.75 1.07-2.89 2.12-5.55 3.15-7.98-2.99-.56-5.04-1.38-6.16-2.45-1.12-1.07-1.68-1.98-1.68-2.73 0-.37.09-.75.28-1.12 2.05 1.31 4.81 1.96 8.26 1.96 1.03 0 1.75-.65 2.17-1.96.42-1.31.72-2.24.91-2.8l.98-2.94c.28-.84.54-1.68.77-2.52.23-.84.35-1.54.35-2.1.19.09.7.28 1.54.56.84.28 1.73.7 2.66 1.26.93.56 1.77 1.26 2.52 2.1.75.84 1.12 1.82 1.12 2.94 0 .47-.05 1.07-.14 1.82-.09.75-.37 1.49-.84 2.24 6.35-1.21 11.53-2.03 15.54-2.45 4.01-.42 7.79-.63 11.34-.63 3.08 0 5.58.12 7.49.35 1.91.23 3.24.54 3.99.91.93.47 1.77 1.07 2.52 1.82.65.65 1.24 1.42 1.75 2.31.51.89.77 1.98.77 3.29 0 .37-.09 1.1-.28 2.17-.19 1.07-.42 1.61-.7 1.61-.28 0-.86-.21-1.75-.63-.89-.42-2.38-.91-4.48-1.47-2.1-.56-4.95-1.05-8.54-1.47-3.59-.42-8.24-.63-13.93-.63-3.18 0-6.72.14-10.64.42zm15.4 6.16c.09.47.12.93.07 1.4-.05.47-.12.79-.21.98.09 2.24.61 5.04 1.54 8.4.93 3.36 1.63 7.19 2.1 11.48.19 2.33-.16 4.39-1.05 6.16-.89 1.77-2.1 3.27-3.64 4.48a17.186 17.186 0 01-5.25 2.8c-1.96.65-3.87.98-5.74.98-2.15 0-3.99-.35-5.53-1.05s-2.82-1.59-3.85-2.66c-1.03-1.07-1.8-2.24-2.31-3.5-.51-1.26-.77-2.45-.77-3.57 0-1.4.35-2.64 1.05-3.71.7-1.07 1.7-1.7 3.01-1.89.84-1.4 1.77-3.03 2.8-4.9 1.03-1.87 2.08-3.76 3.15-5.67 1.07-1.91 2.08-3.76 3.01-5.53.93-1.77 1.77-3.27 2.52-4.48.19-.37.4-.89.63-1.54.23-.65.44-1.28.63-1.89.19-.61.42-1.14.7-1.61.28-.47.56-.7.84-.7 1.03.65 2.01 1.31 2.94 1.96.75.56 1.45 1.19 2.1 1.89.65.7 1.07 1.42 1.26 2.17zm-13.16 31.5c1.12 0 2.22-.19 3.29-.56 1.07-.37 2.08-.91 3.01-1.61.93-.7 1.68-1.56 2.24-2.59.56-1.03.84-2.15.84-3.36 0-1.12-.21-2.43-.63-3.92-.42-1.49-.91-3.06-1.47-4.69-.56-1.63-1.1-3.22-1.61-4.76-.51-1.54-.91-2.92-1.19-4.13a383.06 383.06 0 01-5.04 7.21c-1.77 2.47-3.36 4.69-4.76 6.65 1.87-.47 3.38-.7 4.55-.7s1.7-.05 1.61-.14c.09 0 .19.05.28.14.19.19.28.47.28.84 0 .28-.49.51-1.47.7-.98.19-2.08.47-3.29.84s-2.31.84-3.29 1.4c-.98.56-1.47 1.4-1.47 2.52 0 .56.21 1.19.63 1.89s.98 1.35 1.68 1.96c.7.61 1.56 1.14 2.59 1.61 1.02.47 2.1.7 3.22.7z" fill="url(#SVGID_2_)"/></g></svg>